<svg width="308" height="48" viewBox="0 0 308 48" fill="none" xmlns="http://www.w3.org/2000/svg">
<mask id="mask0_201_539" style="mask-type:luminance" maskUnits="userSpaceOnUse" x="0" y="0" width="308" height="48">
<path d="M308 0H0V47.5391H308V0Z" fill="white"/>
</mask>
<g mask="url(#mask0_201_539)">
<path d="M106.159 6.48825H112.411V29.0355C112.411 31.507 111.827 33.6809 110.659 35.557C109.501 37.4331 107.872 38.8992 105.772 39.9552C103.671 41 101.216 41.5224 98.4075 41.5224C95.5877 41.5224 93.1274 41 91.0266 39.9552C88.9258 38.8992 87.2968 37.4331 86.1397 35.557C84.9826 33.6809 84.404 31.507 84.404 29.0355V6.48825H90.6559V28.5131C90.6559 29.9511 90.9704 31.2318 91.5996 32.3552C92.2399 33.4786 93.1387 34.3605 94.2958 35.0009C95.4529 35.63 96.8235 35.9446 98.4075 35.9446C99.9916 35.9446 101.362 35.63 102.519 35.0009C103.688 34.3605 104.586 33.4786 105.216 32.3552C105.845 31.2318 106.159 29.9511 106.159 28.5131V6.48825ZM146.144 6.48825V41H140.583L124.321 17.4922H124.035V41H117.783V6.48825H123.377L139.622 30.0129H139.926V6.48825H146.144ZM157.784 6.48825V41H151.532V6.48825H157.784ZM167.563 41H160.889L173.039 6.48825H180.757L192.924 41H186.251L177.033 13.5659H176.764L167.563 41ZM167.782 27.4683H185.981V32.49H167.782V27.4683ZM224.407 6.48825V41H218.846L202.584 17.4922H202.298V41H196.046V6.48825H201.641L217.886 30.0129H218.189V6.48825H224.407ZM228.279 11.729V6.48825H255.814V11.729H245.147V41H238.946V11.729H228.279Z" fill="#F67011"/>
<path d="M32.8536 7.88187L16.5874 21.9443L9.21846 14.6064L18.8112 6.57774H23.4975L30.7966 0.456055H16.413L0.00366977 14.2162L0 14.2198L0.00550465 14.225L32.826 47.0867V38.2425V14.5238L32.8536 14.2988V7.88187Z" fill="#F67011"/>
<path d="M37.4766 7.88187L53.7427 21.9443L61.1117 14.6064L51.5188 6.57774H46.8327L39.5334 0.456055H53.917L70.3265 14.2162L70.3302 14.2198L70.3246 14.225L37.504 47.0867V38.2425V14.5238L37.4766 14.2988V7.88187Z" fill="#F67011"/>
</g>
</svg>
